<?xml version="1.0" encoding="UTF-8"?>
<!DOCTYPE svg PUBLIC "-//W3C//DTD SVG 1.1//EN" "http://www.w3.org/Graphics/SVG/1.1/DTD/svg11.dtd">
<svg version="1.2" width="297mm" height="210mm" viewBox="0 0 29700 21000" preserveAspectRatio="xMidYMid" fill-rule="evenodd" stroke-width="28.222" stroke-linejoin="round" xmlns="http://www.w3.org/2000/svg" xmlns:ooo="http://xml.openoffice.org/svg/export" xmlns:xlink="http://www.w3.org/1999/xlink" xmlns:presentation="http://sun.com/xmlns/staroffice/presentation" xmlns:smil="http://www.w3.org/2001/SMIL20/" xmlns:anim="urn:oasis:names:tc:opendocument:xmlns:animation:1.0" xml:space="preserve">
 <defs class="ClipPathGroup">
  <clipPath id="presentation_clip_path" clipPathUnits="userSpaceOnUse">
   <rect x="0" y="0" width="29700" height="21000"/>
  </clipPath>
  <clipPath id="presentation_clip_path_shrink" clipPathUnits="userSpaceOnUse">
   <rect x="29" y="21" width="29641" height="20958"/>
  </clipPath>
 </defs>
 <defs class="TextShapeIndex">
  <g ooo:slide="id1" ooo:id-list="id3 id4 id5 id6 id7 id8 id9 id10 id11 id12 id13 id14"/>
 </defs>
 <defs class="EmbeddedBulletChars">
  <g id="bullet-char-template-57356" transform="scale(0.00048828125,-0.00048828125)">
   <path d="M 580,1141 L 1163,571 580,0 -4,571 580,1141 Z"/>
  </g>
  <g id="bullet-char-template-57354" transform="scale(0.00048828125,-0.00048828125)">
   <path d="M 8,1128 L 1137,1128 1137,0 8,0 8,1128 Z"/>
  </g>
  <g id="bullet-char-template-10146" transform="scale(0.00048828125,-0.00048828125)">
   <path d="M 174,0 L 602,739 174,1481 1456,739 174,0 Z M 1358,739 L 309,1346 659,739 1358,739 Z"/>
  </g>
  <g id="bullet-char-template-10132" transform="scale(0.00048828125,-0.00048828125)">
   <path d="M 2015,739 L 1276,0 717,0 1260,543 174,543 174,936 1260,936 717,1481 1274,1481 2015,739 Z"/>
  </g>
  <g id="bullet-char-template-10007" transform="scale(0.00048828125,-0.00048828125)">
   <path d="M 0,-2 C -7,14 -16,27 -25,37 L 356,567 C 262,823 215,952 215,954 215,979 228,992 255,992 264,992 276,990 289,987 310,991 331,999 354,1012 L 381,999 492,748 772,1049 836,1024 860,1049 C 881,1039 901,1025 922,1006 886,937 835,863 770,784 769,783 710,716 594,584 L 774,223 C 774,196 753,168 711,139 L 727,119 C 717,90 699,76 672,76 641,76 570,178 457,381 L 164,-76 C 142,-110 111,-127 72,-127 30,-127 9,-110 8,-76 1,-67 -2,-52 -2,-32 -2,-23 -1,-13 0,-2 Z"/>
  </g>
  <g id="bullet-char-template-10004" transform="scale(0.00048828125,-0.00048828125)">
   <path d="M 285,-33 C 182,-33 111,30 74,156 52,228 41,333 41,471 41,549 55,616 82,672 116,743 169,778 240,778 293,778 328,747 346,684 L 369,508 C 377,444 397,411 428,410 L 1163,1116 C 1174,1127 1196,1133 1229,1133 1271,1133 1292,1118 1292,1087 L 1292,965 C 1292,929 1282,901 1262,881 L 442,47 C 390,-6 338,-33 285,-33 Z"/>
  </g>
  <g id="bullet-char-template-9679" transform="scale(0.00048828125,-0.00048828125)">
   <path d="M 813,0 C 632,0 489,54 383,161 276,268 223,411 223,592 223,773 276,916 383,1023 489,1130 632,1184 813,1184 992,1184 1136,1130 1245,1023 1353,916 1407,772 1407,592 1407,412 1353,268 1245,161 1136,54 992,0 813,0 Z"/>
  </g>
  <g id="bullet-char-template-8226" transform="scale(0.00048828125,-0.00048828125)">
   <path d="M 346,457 C 273,457 209,483 155,535 101,586 74,649 74,723 74,796 101,859 155,911 209,963 273,989 346,989 419,989 480,963 531,910 582,859 608,796 608,723 608,648 583,586 532,535 482,483 420,457 346,457 Z"/>
  </g>
  <g id="bullet-char-template-8211" transform="scale(0.00048828125,-0.00048828125)">
   <path d="M -4,459 L 1135,459 1135,606 -4,606 -4,459 Z"/>
  </g>
  <g id="bullet-char-template-61548" transform="scale(0.00048828125,-0.00048828125)">
   <path d="M 173,740 C 173,903 231,1043 346,1159 462,1274 601,1332 765,1332 928,1332 1067,1274 1183,1159 1299,1043 1357,903 1357,740 1357,577 1299,437 1183,322 1067,206 928,148 765,148 601,148 462,206 346,322 231,437 173,577 173,740 Z"/>
  </g>
 </defs>
 <g>
  <g id="id2" class="Master_Slide">
   <g id="bg-id2" class="Background"/>
   <g id="bo-id2" class="BackgroundObjects"/>
  </g>
 </g>
 <g class="SlideGroup">
  <g>
   <g id="container-id1">
    <g id="id1" class="Slide" clip-path="url(#presentation_clip_path)">
     <g class="Page">
      <g id="bg-id1" class="Background">
       <path fill="rgb(255,255,255)" stroke="none" d="M 14850,20999 L 0,20999 0,0 29699,0 29699,20999 14850,20999 Z"/>
      </g>
      <g class="Group">
       <g class="Graphic">
        <g id="id3">
         <rect class="BoundingBox" stroke="none" fill="none" x="9862" y="9240" width="1271" height="956"/>
         <defs>
          <clipPath id="clip_path_1" clipPathUnits="userSpaceOnUse">
           <path d="M 9862,9240 L 11132,9240 11132,10195 9862,10195 9862,9240 Z"/>
          </clipPath>
         </defs>
         <g clip-path="url(#clip_path_1)">
          <path fill="rgb(0,0,0)" stroke="none" d="M 10003,9884 C 10011,9708 10116,9678 10159,9678 10289,9678 10301,9838 10301,9884 L 10003,9884 10003,9884 Z M 10002,9909 L 10353,9909 C 10381,9909 10385,9909 10385,9884 10385,9767 10317,9652 10159,9652 10013,9652 9897,9774 9897,9922 9897,10080 10029,10195 10174,10195 10328,10195 10385,10064 10385,10041 10385,10029 10374,10027 10368,10027 10357,10027 10354,10034 10352,10044 10308,10165 10194,10165 10182,10165 10119,10165 10068,10130 10040,10086 10002,10029 10002,9951 10002,9909 L 10002,9909 Z"/>
          <path fill="rgb(0,0,0)" stroke="none" d="M 10830,9565 L 11099,9565 C 11111,9565 11132,9565 11132,9546 11132,9525 11112,9525 11099,9525 L 10830,9525 10830,9271 C 10830,9260 10830,9240 10809,9240 10786,9240 10786,9259 10786,9271 L 10786,9525 10516,9525 C 10504,9525 10483,9525 10483,9545 10483,9565 10504,9565 10516,9565 L 10786,9565 10786,9820 C 10786,9830 10786,9850 10808,9850 10830,9850 10830,9831 10830,9820 L 10830,9565 10830,9565 Z"/>
         </g>
        </g>
       </g>
       <g class="Group">
        <g class="Graphic">
         <g id="id4">
          <rect class="BoundingBox" stroke="none" fill="none" x="24708" y="6146" width="1013" height="840"/>
          <defs>
           <clipPath id="clip_path_2" clipPathUnits="userSpaceOnUse">
            <path d="M 24708,6146 L 25720,6146 25720,6985 24708,6985 24708,6146 Z"/>
           </clipPath>
          </defs>
          <g clip-path="url(#clip_path_2)">
           <path fill="rgb(0,0,0)" stroke="none" d="M 24911,6368 C 24915,6345 24924,6304 24924,6299 24924,6280 24914,6269 24899,6269 24896,6269 24871,6270 24864,6308 L 24737,6938 C 24734,6951 24734,6953 24734,6956 24734,6972 24744,6985 24759,6985 24777,6985 24788,6965 24790,6962 24793,6952 24805,6896 24838,6728 24866,6758 24906,6762 24923,6762 24985,6762 25019,6713 25040,6683 25048,6732 25081,6762 25119,6762 25150,6762 25170,6737 25184,6702 25199,6663 25211,6597 25211,6595 25211,6584 25203,6584 25200,6584 25191,6584 25191,6588 25188,6603 25173,6674 25157,6738 25121,6738 25097,6738 25095,6710 25095,6688 25095,6664 25105,6613 25112,6575 L 25137,6457 C 25140,6441 25148,6400 25152,6384 25156,6359 25165,6317 25165,6311 25165,6291 25153,6281 25140,6281 25135,6281 25112,6282 25105,6319 L 25064,6523 C 25053,6577 25044,6623 25041,6634 25040,6639 24998,6738 24927,6738 24883,6738 24862,6702 24862,6643 24862,6612 24868,6581 24874,6551 L 24911,6368 24911,6368 Z"/>
           <path fill="rgb(0,0,0)" stroke="none" d="M 25695,6183 C 25705,6183 25720,6183 25720,6165 25720,6146 25706,6146 25695,6146 L 25329,6146 C 25319,6146 25304,6146 25304,6164 25304,6183 25318,6183 25329,6183 L 25695,6183 25695,6183 Z"/>
          </g>
         </g>
        </g>
       </g>
       <g class="Group">
        <g class="Graphic">
         <g id="id5">
          <rect class="BoundingBox" stroke="none" fill="none" x="23753" y="15766" width="1015" height="1062"/>
          <defs>
           <clipPath id="clip_path_3" clipPathUnits="userSpaceOnUse">
            <path d="M 23753,15766 L 24767,15766 24767,16827 23753,16827 23753,15766 Z"/>
           </clipPath>
          </defs>
          <g clip-path="url(#clip_path_3)">
           <path fill="rgb(0,0,0)" stroke="none" d="M 23954,16233 C 23958,16211 23967,16171 23967,16166 23967,16148 23956,16137 23942,16137 23939,16137 23915,16138 23907,16175 L 23782,16782 C 23779,16795 23779,16797 23779,16799 23779,16814 23789,16827 23803,16827 23822,16827 23832,16808 23834,16805 23837,16796 23849,16741 23882,16580 23909,16608 23949,16612 23966,16612 24027,16612 24061,16565 24082,16536 24089,16583 24121,16612 24160,16612 24190,16612 24210,16588 24224,16554 24239,16517 24250,16453 24250,16451 24250,16440 24242,16440 24240,16440 24231,16440 24230,16444 24228,16459 24213,16527 24197,16589 24161,16589 24138,16589 24135,16562 24135,16541 24135,16518 24146,16469 24153,16432 L 24177,16319 C 24180,16303 24188,16263 24192,16247 24196,16223 24205,16183 24205,16177 24205,16158 24193,16149 24180,16149 24175,16149 24153,16150 24146,16185 L 24105,16382 C 24095,16434 24085,16478 24082,16488 24082,16494 24040,16589 23969,16589 23926,16589 23905,16554 23905,16498 23905,16467 23911,16438 23917,16409 L 23954,16233 23954,16233 Z"/>
           <path fill="rgb(0,0,0)" stroke="none" d="M 24558,16054 L 24744,16054 C 24752,16054 24767,16054 24767,16037 24767,16018 24753,16018 24744,16018 L 24558,16018 24558,15793 C 24558,15784 24558,15766 24544,15766 24529,15766 24529,15783 24529,15793 L 24529,16018 24342,16018 C 24334,16018 24319,16018 24319,16036 24319,16054 24333,16054 24342,16054 L 24529,16054 24529,16280 C 24529,16289 24529,16307 24543,16307 24558,16307 24558,16290 24558,16280 L 24558,16054 24558,16054 Z"/>
          </g>
         </g>
        </g>
       </g>
       <g class="com.sun.star.drawing.CustomShape">
        <g id="id6">
         <rect class="BoundingBox" stroke="none" fill="none" x="14997" y="9607" width="3203" height="1414"/>
         <path fill="rgb(255,255,255)" stroke="none" d="M 17917,9608 L 17951,9691 17983,9773 18012,9858 18039,9943 18065,10028 18088,10115 18108,10202 18127,10290 18144,10378 18158,10467 18171,10555 18181,10644 18188,10734 18194,10823 18198,10914 14998,11019 17917,9608 Z"/>
         <path fill="none" stroke="rgb(0,0,0)" d="M 17917,9608 L 17951,9691 17983,9773 18012,9858 18039,9943 18065,10028 18088,10115 18108,10202 18127,10290 18144,10378 18158,10467 18171,10555 18181,10644 18188,10734 18194,10823 18198,10914 14998,11019 17917,9608 Z"/>
        </g>
       </g>
       <g class="com.sun.star.drawing.CustomShape">
        <g id="id7">
         <rect class="BoundingBox" stroke="none" fill="none" x="13335" y="8588" width="4767" height="4449"/>
         <path fill="rgb(255,255,255)" stroke="none" d="M 18100,10812 C 18100,11202 17990,11586 17781,11924 17572,12261 17271,12542 16909,12737 16547,12932 16136,13035 15718,13035 15300,13035 14889,12932 14527,12737 14165,12542 13864,12261 13655,11924 13446,11586 13336,11202 13336,10812 13336,10422 13446,10038 13655,9701 13864,9363 14165,9082 14527,8887 14889,8692 15300,8589 15718,8589 16136,8589 16547,8692 16909,8887 17271,9082 17572,9363 17781,9700 17990,10038 18100,10422 18100,10812 L 18100,10812 Z"/>
         <path fill="none" stroke="rgb(255,255,255)" d="M 18100,10812 C 18100,11202 17990,11586 17781,11924 17572,12261 17271,12542 16909,12737 16547,12932 16136,13035 15718,13035 15300,13035 14889,12932 14527,12737 14165,12542 13864,12261 13655,11924 13446,11586 13336,11202 13336,10812 13336,10422 13446,10038 13655,9701 13864,9363 14165,9082 14527,8887 14889,8692 15300,8589 15718,8589 16136,8589 16547,8692 16909,8887 17271,9082 17572,9363 17781,9700 17990,10038 18100,10422 18100,10812 L 18100,10812 Z"/>
        </g>
       </g>
       <g class="Group">
        <g class="Graphic">
         <g id="id8">
          <rect class="BoundingBox" stroke="none" fill="none" x="13655" y="9487" width="1296" height="791"/>
          <path fill="rgb(0,0,0)" stroke="none" d="M 13836,9907 C 13844,9723 13945,9693 13987,9693 14111,9693 14124,9859 14124,9907 L 13836,9907 13836,9907 Z M 13835,9933 L 14173,9933 C 14200,9933 14204,9933 14204,9907 14204,9785 14138,9666 13987,9666 13846,9666 13735,9792 13735,9946 13735,10111 13862,10231 14001,10231 14149,10231 14204,10094 14204,10071 14204,10058 14194,10056 14188,10056 14177,10056 14174,10063 14172,10073 14130,10200 14021,10200 14008,10200 13948,10200 13899,10163 13872,10117 13835,10058 13835,9977 13835,9933 L 13835,9933 Z"/>
          <path fill="rgb(0,0,0)" stroke="none" d="M 14870,9576 C 14884,9576 14904,9576 14904,9555 14904,9533 14885,9533 14870,9533 L 14365,9533 C 14351,9533 14331,9533 14331,9554 14331,9576 14350,9576 14365,9576 L 14870,9576 14870,9576 Z"/>
         </g>
        </g>
       </g>
       <g class="com.sun.star.drawing.CustomShape">
        <g id="id9">
         <rect class="BoundingBox" stroke="none" fill="none" x="13832" y="10769" width="322" height="322"/>
         <path fill="rgb(0,0,0)" stroke="none" d="M 14152,10930 C 14152,10957 14145,10985 14131,11009 14117,11033 14096,11054 14072,11068 14048,11082 14020,11089 13992,11089 13965,11089 13937,11082 13913,11068 13889,11054 13868,11033 13854,11009 13840,10985 13833,10957 13833,10930 13833,10902 13840,10874 13854,10850 13868,10826 13889,10805 13913,10791 13937,10777 13965,10770 13992,10770 14020,10770 14048,10777 14072,10791 14096,10805 14117,10826 14131,10850 14145,10874 14152,10902 14152,10930 L 14152,10930 Z"/>
         <path fill="none" stroke="rgb(0,0,0)" d="M 14152,10930 C 14152,10957 14145,10985 14131,11009 14117,11033 14096,11054 14072,11068 14048,11082 14020,11089 13992,11089 13965,11089 13937,11082 13913,11068 13889,11054 13868,11033 13854,11009 13840,10985 13833,10957 13833,10930 13833,10902 13840,10874 13854,10850 13868,10826 13889,10805 13913,10791 13937,10777 13965,10770 13992,10770 14020,10770 14048,10777 14072,10791 14096,10805 14117,10826 14131,10850 14145,10874 14152,10902 14152,10930 Z"/>
        </g>
       </g>
       <g class="Group">
        <g class="Graphic">
         <g id="id10">
          <rect class="BoundingBox" stroke="none" fill="none" x="16830" y="9881" width="1015" height="865"/>
          <path fill="rgb(0,0,0)" stroke="none" d="M 17465,10329 C 17488,10243 17488,10187 17488,10175 17488,10137 17481,9970 17360,9970 17264,9970 17188,10078 17188,10158 17188,10258 17297,10307 17378,10331 17353,10424 17334,10483 17296,10553 17281,10582 17225,10684 17157,10684 17078,10684 17072,10631 17072,10601 17072,10575 17081,10542 17087,10518 17093,10492 17100,10470 17109,10439 L 17122,10390 C 17128,10372 17134,10351 17134,10335 17134,10274 17082,10241 17029,10241 16975,10241 16953,10281 16943,10299 16922,10334 16907,10396 16907,10399 16907,10409 16919,10409 16921,10409 16933,10409 16934,10408 16941,10386 16960,10313 16984,10263 17025,10263 17045,10263 17061,10271 17061,10311 17061,10333 17045,10389 17034,10427 17030,10444 17019,10479 17014,10502 17004,10533 16997,10558 16997,10588 16997,10686 17078,10706 17154,10706 17276,10706 17400,10544 17459,10351 17471,10353 17504,10360 17511,10360 17516,10360 17523,10357 17523,10348 17523,10339 17515,10338 17499,10335 L 17465,10329 17465,10329 Z M 17385,10308 C 17328,10291 17217,10251 17217,10157 17217,10094 17278,9993 17359,9993 17388,9993 17419,10008 17419,10115 17419,10180 17400,10250 17385,10308 L 17385,10308 Z"/>
          <path fill="rgb(0,0,0)" stroke="none" d="M 17793,9982 C 17800,9970 17800,9964 17800,9959 17800,9937 17778,9920 17753,9920 17722,9920 17712,9942 17708,9954 L 17601,10265 C 17600,10267 17597,10276 17597,10277 17597,10285 17622,10292 17629,10292 17634,10292 17635,10291 17641,10280 L 17793,9982 17793,9982 Z"/>
         </g>
        </g>
       </g>
      </g>
      <g class="com.sun.star.drawing.LineShape">
       <g id="id11">
        <rect class="BoundingBox" stroke="none" fill="none" x="4103" y="10757" width="9045" height="381"/>
        <path fill="none" stroke="rgb(0,0,0)" stroke-width="53" stroke-linejoin="round" d="M 4130,10947 L 12793,10947"/>
        <path fill="rgb(0,0,0)" stroke="none" d="M 12768,10758 L 13147,10947 12768,11137 12768,10758 Z"/>
       </g>
      </g>
      <g class="com.sun.star.drawing.LineShape">
       <g id="id12">
        <rect class="BoundingBox" stroke="none" fill="none" x="15196" y="11153" width="10590" height="4759"/>
        <path fill="none" stroke="rgb(0,0,0)" stroke-width="53" stroke-linejoin="round" d="M 15223,11180 L 25462,15748"/>
        <path fill="rgb(0,0,0)" stroke="none" d="M 25516,15565 L 25785,15892 25362,15911 25516,15565 Z"/>
       </g>
      </g>
      <g class="com.sun.star.drawing.LineShape">
       <g id="id13">
        <rect class="BoundingBox" stroke="none" fill="none" x="15198" y="6707" width="11275" height="3836"/>
        <path fill="none" stroke="rgb(0,0,0)" stroke-width="53" stroke-linejoin="round" d="M 15225,10515 L 26136,6879"/>
        <path fill="rgb(0,0,0)" stroke="none" d="M 26053,6707 L 26472,6767 26172,7067 26053,6707 Z"/>
       </g>
      </g>
      <g class="com.sun.star.drawing.LineShape">
       <g id="id14">
        <rect class="BoundingBox" stroke="none" fill="none" x="15610" y="10911" width="10846" height="3"/>
        <path fill="none" stroke="rgb(0,0,0)" d="M 26454,10912 L 26292,10912"/>
        <path fill="none" stroke="rgb(0,0,0)" d="M 26211,10912 L 26050,10912"/>
        <path fill="none" stroke="rgb(0,0,0)" d="M 25969,10912 L 25807,10912"/>
        <path fill="none" stroke="rgb(0,0,0)" d="M 25726,10912 L 25565,10912"/>
        <path fill="none" stroke="rgb(0,0,0)" d="M 25484,10912 L 25322,10912"/>
        <path fill="none" stroke="rgb(0,0,0)" d="M 25241,10912 L 25080,10912"/>
        <path fill="none" stroke="rgb(0,0,0)" d="M 24999,10912 L 24837,10912"/>
        <path fill="none" stroke="rgb(0,0,0)" d="M 24756,10912 L 24594,10912"/>
        <path fill="none" stroke="rgb(0,0,0)" d="M 24514,10912 L 24352,10912"/>
        <path fill="none" stroke="rgb(0,0,0)" d="M 24271,10912 L 24109,10912"/>
        <path fill="none" stroke="rgb(0,0,0)" d="M 24029,10912 L 23867,10912"/>
        <path fill="none" stroke="rgb(0,0,0)" d="M 23786,10912 L 23624,10912"/>
        <path fill="none" stroke="rgb(0,0,0)" d="M 23543,10912 L 23382,10912"/>
        <path fill="none" stroke="rgb(0,0,0)" d="M 23301,10912 L 23139,10912"/>
        <path fill="none" stroke="rgb(0,0,0)" d="M 23058,10912 L 22897,10912"/>
        <path fill="none" stroke="rgb(0,0,0)" d="M 22816,10912 L 22654,10912"/>
        <path fill="none" stroke="rgb(0,0,0)" d="M 22573,10912 L 22412,10912"/>
        <path fill="none" stroke="rgb(0,0,0)" d="M 22331,10912 L 22169,10912"/>
        <path fill="none" stroke="rgb(0,0,0)" d="M 22088,10912 L 21926,10912"/>
        <path fill="none" stroke="rgb(0,0,0)" d="M 21846,10912 L 21684,10912"/>
        <path fill="none" stroke="rgb(0,0,0)" d="M 21603,10912 L 21441,10912"/>
        <path fill="none" stroke="rgb(0,0,0)" d="M 21360,10912 L 21199,10912"/>
        <path fill="none" stroke="rgb(0,0,0)" d="M 21118,10912 L 20956,10912"/>
        <path fill="none" stroke="rgb(0,0,0)" d="M 20875,10912 L 20714,10912"/>
        <path fill="none" stroke="rgb(0,0,0)" d="M 20633,10912 L 20471,10912"/>
        <path fill="none" stroke="rgb(0,0,0)" d="M 20390,10912 L 20229,10912"/>
        <path fill="none" stroke="rgb(0,0,0)" d="M 20148,10912 L 19986,10912"/>
        <path fill="none" stroke="rgb(0,0,0)" d="M 19905,10912 L 19743,10912"/>
        <path fill="none" stroke="rgb(0,0,0)" d="M 19663,10912 L 19501,10912"/>
        <path fill="none" stroke="rgb(0,0,0)" d="M 19420,10912 L 19258,10912"/>
        <path fill="none" stroke="rgb(0,0,0)" d="M 19178,10912 L 19016,10912"/>
        <path fill="none" stroke="rgb(0,0,0)" d="M 18935,10912 L 18773,10912"/>
        <path fill="none" stroke="rgb(0,0,0)" d="M 18692,10912 L 18531,10912"/>
        <path fill="none" stroke="rgb(0,0,0)" d="M 18450,10912 L 18288,10912"/>
        <path fill="none" stroke="rgb(0,0,0)" d="M 18207,10912 L 18046,10912"/>
        <path fill="none" stroke="rgb(0,0,0)" d="M 17965,10912 L 17803,10912"/>
        <path fill="none" stroke="rgb(0,0,0)" d="M 17722,10912 L 17560,10912"/>
        <path fill="none" stroke="rgb(0,0,0)" d="M 17480,10912 L 17318,10912"/>
        <path fill="none" stroke="rgb(0,0,0)" d="M 17237,10912 L 17075,10912"/>
        <path fill="none" stroke="rgb(0,0,0)" d="M 16995,10912 L 16833,10912"/>
        <path fill="none" stroke="rgb(0,0,0)" d="M 16752,10912 L 16590,10912"/>
        <path fill="none" stroke="rgb(0,0,0)" d="M 16509,10912 L 16348,10912"/>
        <path fill="none" stroke="rgb(0,0,0)" d="M 16267,10912 L 16105,10912"/>
        <path fill="none" stroke="rgb(0,0,0)" d="M 16024,10912 L 15863,10912"/>
        <path fill="none" stroke="rgb(0,0,0)" d="M 15782,10912 L 15620,10912"/>
       </g>
      </g>
     </g>
    </g>
   </g>
  </g>
 </g>
</svg>